<?xml version="1.0" encoding="utf-8"?>
<!-- Generator: Adobe Illustrator 16.0.0, SVG Export Plug-In . SVG Version: 6.00 Build 0)  -->
<!DOCTYPE svg PUBLIC "-//W3C//DTD SVG 1.1//EN" "http://www.w3.org/Graphics/SVG/1.1/DTD/svg11.dtd">
<svg version="1.1" id="Layer_1" xmlns="http://www.w3.org/2000/svg" xmlns:xlink="http://www.w3.org/1999/xlink" x="0px" y="0px"
	 width="960px" height="960px" viewBox="0 0 960 960" enable-background="new 0 0 960 960" xml:space="preserve">
<g>
	<path d="M527.072,756.873l-0.469-0.29l0.153-0.526l-1.874-0.548l-12.677-7.901l-2.409,3.857l11.41,7.112
		c-4.932,14.413-18.259,24.553-33.442,25.495v-47.188h24.94v-4.546h-24.94v-6.896c6.137-1.094,10.815-6.453,10.815-12.895
		c0-6.44-4.679-11.8-10.815-12.895v-12.992c13.4-26.219,35.901-46.465,63.452-57.043c13.772-5.288,28.166-7.969,42.783-7.969
		c12.608,0,25.1,2.005,37.137,5.946l87.281,87.188l3.218-3.213l-87.432-87.339c-9.104-28.03-7.531-58.267,4.473-85.22
		c11.129-24.997,30.682-45.534,55.077-57.881h25.942v-4.546h-26.151c-26.274-13.383-46.566-35.875-57.163-63.417
		c-9.827-25.541-10.538-53.875-2.025-79.833l84.473-84.379l-3.218-3.215l-84.629,84.536c-11.947,3.871-24.343,5.845-36.858,5.845
		c-16.731,0-33.031-3.472-48.449-10.318c-25.003-11.109-45.549-30.623-57.91-54.968v-42.049h50.828v-4.546h-14.165v-40.601h14.165
		v-4.545h-106.27v4.545h14.227v40.601h-14.227v4.546h50.892v42.154c-13.393,26.271-35.921,46.562-63.514,57.158
		c-13.764,5.283-28.156,7.963-42.771,7.963c-12.613,0-25.11-2.006-37.155-5.948L252.5,242.932l-3.218,3.214l87.43,87.337
		c9.104,28.029,7.533,58.266-4.467,85.223c-11.127,24.993-30.682,45.53-55.082,57.878h-25.94v4.546h26.154
		c26.275,13.384,46.566,35.876,57.161,63.418c9.824,25.547,10.532,53.881,2.016,79.837l-84.465,84.374l3.217,3.215l84.632-84.541
		c11.95-3.869,24.345-5.842,36.859-5.842c16.731,0,33.029,3.473,48.442,10.319c25.047,11.128,45.62,30.685,57.974,55.085v12.647
		c-6.17,1.067-10.883,6.442-10.883,12.905s4.712,11.837,10.883,12.903v6.887h-25.005v4.546h25.005v47.191
		c-15.208-0.918-28.567-11.062-33.508-25.498l11.411-7.112l-2.41-3.856l-12.667,7.9l-1.883,0.548l0.154,0.528l-0.469,0.292
		l1.071,1.714c5.136,17.031,20.64,29.079,38.301,30.028v13.21h4.55v-13.213c17.634-0.975,33.109-13.017,38.238-30.029
		L527.072,756.873z M487.765,224.241v-40.601h13.782v40.601H487.765z M519.878,224.241h-13.781v-40.601h13.781V224.241z
		 M451.1,183.641h13.783v40.601H451.1V183.641z M469.432,224.241v-40.601h13.783v40.601H469.432z M494.03,712.548
		c0,3.919-2.663,7.195-6.266,8.209v-16.418C491.367,705.353,494.03,708.63,494.03,712.548z M385.217,578.931
		c5.022-18.096,4.11-37.495-2.663-55.097c-7.359-19.137-21.056-34.978-38.815-45.015c16.363-9.252,29.451-23.616,37.119-40.843
		c8.34-18.729,9.869-39.605,4.417-59.25c7.692,2.139,15.604,3.22,23.579,3.22c10.793,0,21.419-1.978,31.581-5.88
		c19.16-7.356,35.019-21.04,45.062-38.778c9.261,16.344,23.64,29.418,40.887,37.08c11.381,5.056,23.419,7.619,35.773,7.619
		c7.963,0,15.863-1.076,23.541-3.203c-5.021,18.094-4.109,37.496,2.662,55.1c7.365,19.134,21.062,34.977,38.818,45.014
		c-16.36,9.25-29.449,23.617-37.119,40.846c-8.343,18.729-9.872,39.603-4.421,59.245c-7.687-2.14-15.594-3.221-23.566-3.221
		c-10.795,0-21.424,1.979-31.593,5.882c-19.156,7.358-35.015,21.039-45.062,38.776c-9.257-16.342-23.636-29.417-40.883-37.08
		c-11.379-5.056-23.415-7.618-35.772-7.618C400.797,575.729,392.896,576.804,385.217,578.931z M487.765,625.681
		c9.393-18.28,25.112-32.398,44.348-39.785c9.646-3.702,19.725-5.581,29.96-5.581c8.777,0,17.474,1.39,25.855,4.117l15.48,15.466
		c-8.193-1.988-16.575-3.001-25.016-3.001c-13.036,0-25.869,2.39-38.146,7.103c-21.94,8.424-40.296,23.719-52.481,43.546V625.681z
		 M591.039,581.112c-6.323-19.582-5.209-40.693,3.179-59.521c7.771-17.456,21.411-31.807,38.43-40.46h21.894
		c-18.324,11.192-32.979,27.8-41.756,47.517c-9.562,21.468-11.711,45.271-6.272,67.921L591.039,581.112z M632.497,476.585
		c-18.33-9.38-32.486-25.096-39.889-44.332c-6.86-17.837-7.372-37.618-1.462-55.754l15.48-15.463
		c-5.036,20.851-3.644,42.947,4.105,63.093c8.443,21.936,23.775,40.284,43.649,52.456H632.497z M587.818,373.396
		c-8.321,2.678-16.949,4.045-25.661,4.045c-11.716,0.001-23.128-2.43-33.923-7.225c-17.455-7.755-31.804-21.359-40.47-38.332
		v-21.886c11.2,18.284,27.813,32.909,47.533,41.67c13.745,6.104,28.279,9.2,43.199,9.2c8.371,0,16.683-0.997,24.813-2.947
		L587.818,373.396z M483.215,331.914c-9.382,18.341-25.13,32.506-44.414,39.91c-9.638,3.7-19.713,5.576-29.947,5.577
		c-8.78,0-17.479-1.391-25.865-4.118l-15.485-15.469c8.202,1.989,16.588,3.004,25.034,3.003c13.034,0,25.864-2.389,38.135-7.099
		c21.98-8.443,40.36-23.777,52.542-43.652V331.914z M379.875,376.6c6.323,19.586,5.209,40.7-3.175,59.529
		c-7.768,17.454-21.408,31.801-38.428,40.455h-21.895c18.325-11.191,32.981-27.797,41.759-47.514
		c9.559-21.47,11.704-45.277,6.268-67.926L379.875,376.6z M338.418,481.13c18.334,9.38,32.492,25.099,39.888,44.334
		c6.863,17.838,7.373,37.619,1.46,55.757l-15.479,15.461c5.037-20.853,3.645-42.949-4.104-63.093
		c-8.437-21.936-23.769-40.285-43.646-52.459H338.418z M383.101,584.319c8.323-2.68,16.951-4.047,25.662-4.047
		c11.716,0,23.129,2.433,33.922,7.229c17.499,7.774,31.877,21.423,40.531,38.454v21.854c-11.2-18.327-27.838-32.986-47.596-41.764
		c-13.742-6.104-28.274-9.201-43.194-9.201c-8.373,0-16.684,0.997-24.814,2.946L383.101,584.319z M594,617.104
		c-15.177,0-30.12,2.783-44.416,8.27c-25.984,9.979-47.64,28.242-61.819,51.91v-20.435c11.441-22.338,30.627-39.59,54.114-48.607
		c11.753-4.513,24.039-6.799,36.514-6.799c10.735,0,21.371,1.704,31.621,5.052l14.435,14.423
		C614.489,618.385,604.281,617.104,594,617.104z M634.52,537.165c-11.321,25.422-13.702,53.656-6.956,80.434L613.1,603.149
		c-7.743-23.901-6.391-49.677,3.843-72.655c9.487-21.31,26.149-38.82,46.937-49.363l20.452,0.001
		C662.443,494.165,644.929,513.783,634.52,537.165z M632.134,414.8c9.996,25.976,28.301,47.622,52.018,61.786l-20.451,0
		c-22.39-11.426-39.681-30.605-48.72-54.087c-8.375-21.776-8.988-45.927-1.749-68.06l14.461-14.445
		C621.438,364.668,622.944,390.911,632.134,414.8z M543.826,329.957c16.003,7.107,32.926,10.711,50.298,10.711
		c10.2,0,20.324-1.26,30.205-3.745l-14.448,14.433c-10.173,3.29-20.729,4.967-31.384,4.967c-14.278,0.001-28.189-2.963-41.35-8.807
		c-21.313-9.469-38.829-26.096-49.383-46.838v-20.431C500.81,302.091,520.439,319.566,543.826,329.957z M376.93,340.608
		c15.177,0,30.115-2.782,44.403-8.266c26.024-9.993,47.705-28.297,61.882-52.014v20.424c-11.432,22.391-30.645,39.686-54.175,48.724
		c-11.747,4.509-24.028,6.795-36.502,6.796c-10.738,0-21.379-1.705-31.637-5.054l-14.439-14.423
		C356.429,339.327,366.642,340.609,376.93,340.608z M336.402,420.552c11.318-25.426,13.696-53.66,6.951-80.435l14.461,14.445
		c7.745,23.9,6.396,49.677-3.835,72.661c-9.488,21.309-26.151,38.819-46.941,49.36l-20.451,0
		C308.479,463.55,325.994,443.93,336.402,420.552z M338.785,542.918c-9.992-25.978-28.295-47.623-52.015-61.788h20.448
		c22.394,11.427,39.687,30.606,48.717,54.09c8.376,21.774,8.987,45.927,1.747,68.061l-14.461,14.444
		C349.476,593.055,347.974,566.811,338.785,542.918z M427.091,627.757c-16-7.107-32.92-10.712-50.292-10.712
		c-10.2,0-20.324,1.261-30.207,3.743l14.446-14.432c10.178-3.289,20.732-4.964,31.387-4.964c14.278,0,28.189,2.962,41.344,8.807
		c21.358,9.489,38.902,26.157,49.446,46.954v20.419C470.17,655.681,450.517,638.165,427.091,627.757z M476.882,712.548
		c0-3.941,2.696-7.237,6.333-8.229v16.46C479.578,719.784,476.882,716.49,476.882,712.548z"/>
	<polygon points="443.08,169.416 444.681,173.67 485.578,158.316 526.233,173.668 527.843,169.417 485.58,153.459 	"/>
	<path d="M425.509,421.387l-3.778-7.791c-0.425-0.874-0.686-1.682-0.785-2.422c-0.094-0.742-0.052-1.415,0.13-2.016
		c0.183-0.601,0.483-1.121,0.899-1.559c0.421-0.44,0.928-0.804,1.524-1.093c0.448-0.217,0.912-0.357,1.395-0.418
		c0.483-0.064,0.959-0.019,1.43,0.135c0.468,0.155,0.921,0.435,1.356,0.844c0.432,0.405,0.819,0.961,1.163,1.663l4.336,8.94
		l2.88-1.394l-4.73-9.738c-0.483-1-1.055-1.795-1.707-2.387c-0.657-0.59-1.349-0.997-2.078-1.223
		c-0.728-0.226-1.479-0.289-2.26-0.185c-0.78,0.102-1.532,0.327-2.256,0.678c-1.171,0.568-2.083,1.318-2.735,2.25
		c-0.653,0.935-0.964,1.896-0.934,2.878l-0.062,0.032l-1.132-2.334l-2.879,1.396l7.347,15.135L425.509,421.387z"/>
	<path d="M443.899,399.107c0.246-0.3,0.534-0.58,0.864-0.836c0.33-0.259,0.704-0.498,1.129-0.717
		c0.424-0.219,0.934-0.398,1.534-0.536c0.669-0.154,1.267-0.188,1.799-0.104c0.525,0.082,0.993,0.255,1.392,0.514
		c0.404,0.259,0.731,0.579,0.989,0.955c0.257,0.378,0.434,0.773,0.532,1.189l0.158,0.691l-2.284,0.529
		c-1.248,0.287-2.396,0.657-3.446,1.104c-1.052,0.449-1.934,0.993-2.65,1.631c-0.713,0.639-1.226,1.369-1.531,2.193
		c-0.31,0.825-0.339,1.766-0.096,2.826c0.189,0.807,0.502,1.482,0.944,2.022c0.438,0.542,0.968,0.96,1.582,1.255
		c0.616,0.295,1.294,0.468,2.036,0.512c0.739,0.05,1.49-0.016,2.25-0.189c1.246-0.289,2.293-0.76,3.137-1.416
		c0.844-0.656,1.491-1.594,1.938-2.815l0.067-0.018c0.193,0.83,0.419,1.652,0.683,2.467l2.768-0.64
		c-0.147-0.427-0.29-0.881-0.425-1.359c-0.138-0.479-0.269-1.004-0.404-1.582l-1.935-8.367c-0.167-0.714-0.458-1.37-0.872-1.963
		c-0.418-0.595-0.964-1.084-1.634-1.463c-0.674-0.38-1.475-0.617-2.409-0.719c-0.933-0.1-2.002-0.011-3.199,0.266
		c-1.157,0.267-2.264,0.734-3.322,1.403c-1.062,0.673-1.939,1.511-2.625,2.519l2.316,1.504
		C443.415,399.694,443.654,399.406,443.899,399.107z M452.825,402.546l0.239,1.036c0.128,0.555,0.179,1.132,0.147,1.735
		c-0.031,0.602-0.177,1.174-0.439,1.72c-0.265,0.549-0.661,1.034-1.192,1.462c-0.535,0.426-1.227,0.736-2.084,0.934
		c-1.083,0.251-1.989,0.242-2.721-0.025c-0.731-0.27-1.204-0.875-1.424-1.821c-0.148-0.644-0.072-1.222,0.236-1.729
		c0.309-0.509,0.753-0.951,1.335-1.328c0.582-0.377,1.248-0.694,2.005-0.953c0.754-0.26,1.5-0.473,2.237-0.645L452.825,402.546z"/>
	<path d="M462.824,394.148l3.678-0.332l0.79,8.729c0.062,0.684,0.155,1.358,0.273,2.025c0.119,0.666,0.363,1.255,0.731,1.768
		c0.365,0.513,0.901,0.909,1.606,1.191c0.702,0.282,1.668,0.365,2.896,0.254c0.328-0.03,0.79-0.114,1.384-0.25
		c0.596-0.135,1.068-0.328,1.428-0.573l-0.261-2.899c-0.314,0.22-0.668,0.381-1.061,0.489c-0.394,0.106-0.782,0.178-1.158,0.211
		c-0.615,0.055-1.088-0.016-1.429-0.208c-0.338-0.196-0.601-0.47-0.789-0.821c-0.184-0.35-0.312-0.755-0.377-1.212
		c-0.066-0.456-0.118-0.92-0.163-1.394l-0.687-7.599l4.563-0.412l-0.249-2.756l-4.563,0.415l-0.427-4.702l-3.183,0.287l0.426,4.701
		l-3.678,0.333L462.824,394.148z"/>
	<path d="M485.861,405.748c0.528,0.548,1.156,0.965,1.876,1.248c0.72,0.285,1.495,0.449,2.32,0.491
		c1.302,0.065,2.463-0.157,3.485-0.662c1.021-0.503,1.754-1.195,2.203-2.074l0.068,0.005l-0.128,2.586l3.194,0.161l0.84-16.797
		l-3.192-0.163l-0.435,8.649c-0.044,0.968-0.207,1.802-0.48,2.498c-0.272,0.697-0.631,1.263-1.081,1.703
		c-0.448,0.44-0.964,0.752-1.538,0.938c-0.581,0.183-1.201,0.258-1.863,0.226c-0.499-0.025-0.973-0.126-1.424-0.303
		c-0.455-0.177-0.851-0.445-1.188-0.805c-0.339-0.361-0.6-0.825-0.783-1.39c-0.187-0.566-0.258-1.239-0.218-2.02l0.497-9.921
		l-3.195-0.161l-0.54,10.81c-0.058,1.11,0.06,2.081,0.35,2.912C484.922,404.511,485.329,405.199,485.861,405.748z"/>
	<path d="M514.38,401.775c0.354-1.811,1.024-3.066,2.006-3.766c0.98-0.699,2.238-0.902,3.772-0.601
		c0.255,0.05,0.507,0.123,0.753,0.219c0.248,0.096,0.491,0.205,0.732,0.324l0.803-3.351c-0.394-0.22-0.844-0.381-1.354-0.482
		s-1.038-0.123-1.581-0.073c-0.54,0.054-1.05,0.165-1.529,0.335c-0.478,0.171-0.93,0.401-1.35,0.696
		c-0.419,0.292-0.774,0.637-1.07,1.037l-0.069-0.015l0.495-2.54l-3.136-0.615l-3.229,16.507l3.138,0.613L514.38,401.775z"/>
	<path d="M527.561,413.92c0.591,0.443,1.257,0.8,1.99,1.068c1.199,0.439,2.335,0.613,3.4,0.525c1.063-0.09,2.119-0.523,3.163-1.298
		l0.066,0.021c-0.294,0.8-0.556,1.614-0.779,2.437l2.668,0.977c0.112-0.44,0.238-0.895,0.39-1.371
		c0.146-0.475,0.324-0.989,0.528-1.545l2.953-8.065c0.253-0.685,0.368-1.394,0.343-2.121c-0.021-0.729-0.211-1.434-0.565-2.118
		c-0.359-0.683-0.899-1.322-1.626-1.916c-0.728-0.592-1.671-1.1-2.825-1.525c-1.113-0.406-2.296-0.619-3.552-0.635
		c-1.257-0.018-2.443,0.208-3.573,0.675l1.115,2.525c0.343-0.103,0.697-0.21,1.066-0.328c0.371-0.116,0.764-0.194,1.183-0.23
		c0.417-0.036,0.86-0.03,1.334,0.017c0.474,0.049,1.004,0.178,1.58,0.387c0.644,0.238,1.167,0.535,1.562,0.896
		c0.4,0.358,0.693,0.756,0.887,1.192c0.192,0.437,0.296,0.882,0.304,1.339c0.01,0.456-0.06,0.887-0.204,1.286l-0.244,0.666
		l-2.201-0.805c-1.202-0.439-2.366-0.758-3.491-0.956c-1.123-0.196-2.162-0.224-3.112-0.079c-0.944,0.144-1.775,0.478-2.482,1.001
		c-0.71,0.521-1.249,1.293-1.624,2.315c-0.286,0.777-0.392,1.514-0.317,2.209c0.072,0.691,0.287,1.331,0.642,1.916
		C526.49,412.961,526.966,413.476,527.561,413.92z M528.902,409.12c0.225-0.621,0.609-1.062,1.144-1.319
		c0.536-0.258,1.149-0.387,1.841-0.385c0.695,0.001,1.43,0.101,2.204,0.294c0.771,0.194,1.514,0.423,2.223,0.684l1.603,0.583
		l-0.365,1.001c-0.193,0.533-0.472,1.045-0.824,1.531c-0.355,0.488-0.792,0.889-1.31,1.202c-0.521,0.315-1.119,0.506-1.802,0.571
		c-0.678,0.065-1.428-0.051-2.252-0.352c-1.048-0.381-1.803-0.885-2.266-1.508C528.633,410.798,528.566,410.033,528.902,409.12z"/>
	<polygon points="561.396,399.941 558.523,398.537 546.72,422.633 549.59,424.037 	"/>
	<path d="M441.835,545.4c-0.696-0.852-1.697-1.565-2.995-2.142c-1.096-0.482-2.194-0.736-3.296-0.753
		c-1.104-0.022-2.143,0.166-3.119,0.559c-0.978,0.395-1.868,0.978-2.664,1.746c-0.801,0.77-1.439,1.701-1.924,2.793
		c-0.488,1.093-0.762,2.187-0.829,3.28c-0.063,1.095,0.076,2.131,0.422,3.109c0.341,0.978,0.896,1.871,1.663,2.677
		c0.767,0.809,1.726,1.469,2.883,1.979c2.786,1.235,5.397,1.193,7.833-0.121l-1.392-2.541c-0.831,0.424-1.655,0.695-2.472,0.814
		c-0.818,0.117-1.662-0.015-2.529-0.397c-0.64-0.285-1.215-0.664-1.72-1.133c-0.508-0.471-0.907-0.993-1.197-1.566
		c-0.287-0.572-0.454-1.181-0.5-1.832c-0.043-0.648,0.074-1.292,0.357-1.931l11.768,5.207l0.438-0.99
		c0.422-0.948,0.707-1.939,0.854-2.97c0.15-1.032,0.1-2.043-0.154-3.028C443.006,547.171,442.533,546.252,441.835,545.4z
		 M440.138,551.606l-8.794-3.894c0.22-0.492,0.549-0.946,0.991-1.356c0.44-0.406,0.947-0.73,1.525-0.973
		c0.572-0.237,1.203-0.361,1.883-0.367c0.686-0.007,1.364,0.142,2.047,0.444c0.702,0.311,1.268,0.689,1.697,1.139
		c0.431,0.45,0.737,0.944,0.919,1.479c0.182,0.539,0.247,1.103,0.191,1.695C440.546,550.369,440.391,550.979,440.138,551.606z"/>
	<path d="M467.717,554.268c-0.38-0.618-0.882-1.135-1.508-1.553c-0.624-0.417-1.306-0.728-2.045-0.928
		c-1.198-0.328-2.322-0.363-3.379-0.102c-1.055,0.261-1.879,0.755-2.48,1.48l-0.062-0.021l0.654-2.382l-2.941-0.805l-4.249,15.465
		l2.941,0.805l2.187-7.96c0.244-0.894,0.563-1.634,0.963-2.228c0.394-0.595,0.848-1.047,1.357-1.364
		c0.508-0.318,1.05-0.503,1.627-0.555c0.577-0.051,1.167,0.005,1.779,0.174c0.458,0.125,0.879,0.316,1.265,0.572
		c0.386,0.258,0.699,0.59,0.939,0.996c0.24,0.405,0.386,0.888,0.443,1.454c0.057,0.565-0.016,1.206-0.214,1.923l-2.508,9.139
		l2.941,0.806l2.732-9.954c0.282-1.022,0.373-1.951,0.271-2.785C468.336,555.611,468.096,554.889,467.717,554.268z"/>
	<path d="M492.461,557.157c-0.609-0.817-1.399-1.488-2.369-2.011c-0.969-0.521-2.163-0.804-3.583-0.841
		c-1.198-0.033-2.311,0.15-3.336,0.552c-1.027,0.4-1.92,0.968-2.674,1.702c-0.752,0.736-1.354,1.61-1.8,2.626
		c-0.445,1.015-0.687,2.12-0.716,3.316c-0.035,1.193,0.129,2.309,0.485,3.345c0.354,1.037,0.877,1.941,1.568,2.719
		c0.691,0.773,1.541,1.39,2.557,1.846c1.018,0.454,2.153,0.7,3.421,0.735c3.047,0.085,5.449-0.946,7.202-3.087l-2.258-1.82
		c-0.605,0.705-1.267,1.267-1.976,1.688c-0.712,0.422-1.539,0.616-2.491,0.591c-0.7-0.02-1.374-0.149-2.023-0.392
		c-0.646-0.244-1.216-0.576-1.696-0.994c-0.485-0.421-0.877-0.921-1.163-1.506c-0.291-0.582-0.424-1.224-0.408-1.922l12.868,0.351
		l0.031-1.084c0.024-1.035-0.089-2.06-0.342-3.071C493.503,558.892,493.071,557.976,492.461,557.157z M481.268,561.268
		c0.014-0.54,0.149-1.082,0.4-1.632c0.254-0.541,0.599-1.035,1.041-1.475c0.441-0.438,0.975-0.792,1.604-1.055
		c0.628-0.268,1.313-0.39,2.057-0.367c0.769,0.02,1.439,0.156,2.008,0.407c0.568,0.254,1.037,0.595,1.41,1.021
		c0.374,0.428,0.646,0.925,0.824,1.494c0.176,0.568,0.267,1.193,0.27,1.872L481.268,561.268z"/>
	<path d="M527.557,553.596c-0.343-0.793-0.802-1.469-1.383-2.023c-0.58-0.555-1.302-0.953-2.156-1.185
		c-0.859-0.232-1.896-0.222-3.109,0.037c-0.948,0.202-1.836,0.646-2.66,1.328c-0.827,0.68-1.39,1.562-1.69,2.64
		c-0.715-0.86-1.521-1.453-2.417-1.77c-0.899-0.313-1.935-0.349-3.104-0.099c-0.708,0.149-1.33,0.395-1.871,0.727
		c-0.542,0.332-0.994,0.695-1.36,1.084c-0.37,0.39-0.658,0.779-0.859,1.17c-0.211,0.389-0.319,0.7-0.339,0.938l-0.066,0.012
		l-0.521-2.449l-2.783,0.592l3.343,15.688l2.979-0.636l-1.734-8.14c-0.188-0.883-0.24-1.673-0.156-2.371
		c0.081-0.699,0.266-1.297,0.552-1.797c0.285-0.496,0.659-0.903,1.106-1.22c0.453-0.316,0.947-0.529,1.474-0.643
		c0.731-0.156,1.338-0.149,1.822,0.011c0.485,0.162,0.891,0.444,1.22,0.848c0.329,0.405,0.599,0.905,0.806,1.507
		s0.395,1.278,0.554,2.027l1.745,8.207l2.984-0.635l-1.825-8.568c-0.295-1.391-0.229-2.594,0.199-3.607
		c0.432-1.013,1.362-1.674,2.799-1.978c0.73-0.155,1.342-0.153,1.838,0.004c0.494,0.16,0.908,0.425,1.24,0.792
		c0.336,0.369,0.597,0.82,0.793,1.354c0.191,0.536,0.355,1.104,0.484,1.698l1.858,8.737l2.982-0.636l-1.945-9.134
		C528.165,555.226,527.895,554.389,527.557,553.596z"/>
	<path d="M547.112,538.623l-2.938,1.388l1.22,13.265l-0.061,0.027l-9.646-9.296l-3.186,1.503l12.902,11.765l0.191,2.716
		c0.031,0.434,0.044,0.827,0.036,1.18c-0.007,0.354-0.068,0.688-0.178,1c-0.112,0.316-0.288,0.598-0.529,0.851
		c-0.245,0.249-0.574,0.477-1.004,0.675c-0.547,0.26-1.147,0.405-1.803,0.438l0.851,2.669c0.463-0.02,0.915-0.103,1.357-0.247
		c0.438-0.146,0.864-0.314,1.272-0.505c0.753-0.355,1.337-0.758,1.762-1.206c0.42-0.449,0.731-0.942,0.923-1.48
		c0.191-0.543,0.297-1.135,0.316-1.776c0.018-0.646,0-1.344-0.054-2.09L547.112,538.623z"/>
	<path d="M485.462,535.112c33.035,0,64.171-20.227,83.288-54.104l0.631-1.115l-0.631-1.116
		c-19.117-33.877-50.254-54.102-83.288-54.102c-33.035,0-64.176,20.227-83.294,54.101l-0.63,1.117l0.63,1.116
		C421.287,514.886,452.425,535.112,485.462,535.112z M485.462,429.221c31.009,0,60.339,18.917,78.687,50.672
		c-18.346,31.755-47.678,50.672-78.687,50.672c-31.01,0-60.345-18.917-78.693-50.672
		C425.118,448.137,454.452,429.221,485.462,429.221z"/>
	<path d="M448.815,499.843c7.226,12.772,20.938,21.417,36.64,21.417c15.71,0,29.426-8.648,36.651-21.426
		c0.102-0.141,0.192-0.29,0.262-0.453c3.285-5.983,5.158-12.849,5.158-20.144c0-8.132-2.331-15.727-6.352-22.167v-0.182h-0.117
		c-7.456-11.807-20.623-19.673-35.603-19.673c-23.194,0-42.065,18.852-42.065,42.022c0,7.291,1.871,14.151,5.154,20.135
		C448.614,499.543,448.708,499.697,448.815,499.843z M491.69,516.188c4.563-4.511,8.208-9.73,10.845-15.412h13.597
		C510.474,508.791,501.76,514.498,491.69,516.188z M518.88,496.232h-14.472c1.708-4.817,2.706-9.903,2.951-15.128h15.569
		C522.661,486.529,521.226,491.648,518.88,496.232z M522.869,476.558h-15.498c-0.2-5.205-1.15-10.293-2.817-15.124h13.911
		C520.938,465.991,522.482,471.117,522.869,476.558z M515.555,456.888h-12.828c-2.366-5.222-5.586-10.061-9.569-14.33
		C502.27,444.465,510.177,449.681,515.555,456.888z M487.731,443.535c4.107,3.902,7.452,8.422,9.948,13.353h-9.948V443.535z
		 M487.731,461.434h11.961c1.834,4.799,2.906,9.894,3.129,15.124h-15.09V461.434z M487.731,481.104h15.074
		c-0.268,5.253-1.392,10.342-3.273,15.128h-11.801V481.104z M487.731,500.776h9.734c-2.47,4.757-5.742,9.115-9.734,12.901V500.776z
		 M454.784,500.776h13.593c2.637,5.682,6.283,10.9,10.845,15.412C469.155,514.498,460.44,508.791,454.784,500.776z M483.181,513.678
		c-3.993-3.786-7.263-8.145-9.733-12.901h9.733V513.678z M483.181,496.232h-11.8c-1.881-4.786-3.005-9.877-3.275-15.128h15.076
		V496.232z M483.181,476.558h-15.09c0.222-5.229,1.293-10.324,3.13-15.124h11.96V476.558z M483.181,456.888h-9.945
		c2.496-4.931,5.839-9.453,9.945-13.355V456.888z M477.752,442.559c-3.98,4.269-7.199,9.108-9.564,14.329h-12.826
		C460.738,449.682,468.643,444.467,477.752,442.559z M452.452,461.434h13.91c-1.668,4.832-2.62,9.921-2.822,15.124h-15.492
		C448.435,471.117,449.979,465.991,452.452,461.434z M463.554,481.104c0.245,5.223,1.243,10.309,2.951,15.128h-14.468
		c-2.345-4.584-3.781-9.703-4.049-15.128H463.554z"/>
	<polygon points="478.38,86.077 478.472,86.077 496.4,112.532 501.952,112.532 501.952,80.35 497.583,80.35 497.583,106.805 
		497.491,106.805 479.746,80.35 474.012,80.35 474.012,112.532 478.38,112.532 	"/>
	<polygon points="861.416,490.608 861.416,479.456 877.943,479.456 877.943,475.033 861.416,475.033 861.416,464.666 
		879.172,464.666 879.172,460.244 856.695,460.244 856.695,495.031 880.058,495.031 880.058,490.608 	"/>
	<path d="M494.19,863.189c-1.166-0.652-2.442-1.159-3.821-1.522c-1.38-0.363-2.655-0.773-3.823-1.228
		c-1.167-0.454-2.146-1.047-2.935-1.773c-0.79-0.727-1.184-1.772-1.184-3.134c0-0.486,0.099-1.018,0.297-1.592
		c0.196-0.576,0.537-1.115,1.023-1.614c0.484-0.5,1.131-0.91,1.933-1.227c0.805-0.319,1.813-0.479,3.027-0.479
		c1.274,0,2.413,0.259,3.413,0.773c1,0.516,1.774,1.197,2.319,2.046l3.55-3.228c-1.213-1.483-2.624-2.47-4.23-2.955
		c-1.608-0.484-3.293-0.727-5.052-0.727c-1.941,0-3.603,0.295-4.983,0.886c-1.38,0.593-2.51,1.327-3.39,2.206
		c-0.88,0.88-1.524,1.848-1.934,2.908c-0.41,1.062-0.614,2.062-0.614,3.002c0,2.088,0.394,3.748,1.183,4.977
		c0.789,1.228,1.767,2.204,2.937,2.931c1.166,0.727,2.44,1.297,3.821,1.704c1.38,0.41,2.652,0.835,3.823,1.275
		c1.166,0.438,2.144,0.982,2.934,1.634c0.789,0.652,1.185,1.599,1.185,2.841c0,0.881-0.199,1.654-0.591,2.319
		c-0.396,0.666-0.903,1.227-1.526,1.683c-0.622,0.454-1.312,0.794-2.07,1.022c-0.759,0.228-1.502,0.341-2.229,0.341
		c-1.305,0-2.571-0.28-3.8-0.843c-1.229-0.56-2.237-1.431-3.026-2.612l-3.594,3.092c1.092,1.514,2.563,2.636,4.414,3.364
		c1.85,0.727,3.807,1.09,5.87,1.09c1.548,0,3.003-0.228,4.369-0.684c1.364-0.453,2.548-1.105,3.55-1.953
		c1-0.848,1.796-1.892,2.389-3.136c0.591-1.243,0.888-2.638,0.888-4.184c0-1.938-0.395-3.462-1.184-4.567
		S495.359,863.841,494.19,863.189z"/>
	<polygon points="114.368,495.615 123.741,463.433 119.191,463.433 112.069,489.16 111.979,489.16 104.403,463.433 99.397,463.433 
		91.82,489.16 91.729,489.16 84.607,463.433 80.058,463.433 89.477,495.615 94.119,495.615 101.855,469.342 101.945,469.342 
		109.726,495.615 	"/>
	<path d="M864.251,439.3h4.578c-8.923-87.88-47.493-169.352-110.865-232.656C695.621,144.368,615.676,106.083,529.34,96.369v4.574
		c85.118,9.694,163.926,47.499,225.407,108.915C817.259,272.303,855.346,352.636,864.251,439.3z"/>
	<path d="M216.171,209.858c63.356-63.288,145.107-101.514,233.208-109.731v-4.562c-89.317,8.231-172.209,46.933-236.425,111.08
		c-63.274,63.206-101.82,144.525-110.82,232.249h4.578C115.695,352.385,153.757,272.205,216.171,209.858z"/>
	<path d="M754.747,747.856c-62.28,62.215-142.338,100.202-228.727,109.282v4.574c87.606-9.098,168.803-47.567,231.943-110.642
		c63.19-63.12,101.715-144.307,110.782-231.896h-4.578C855.116,605.548,817.075,685.596,754.747,747.856z"/>
	<path d="M106.705,518.769h-4.577c8.99,87.744,47.538,169.084,110.826,232.303c63.42,63.353,145.056,101.896,233.106,110.768v-4.572
		c-86.834-8.858-167.329-46.916-229.889-109.41C153.745,685.497,115.679,605.298,106.705,518.769z"/>
</g>
</svg>
