<?xml version="1.0" encoding="utf-8"?>
<!-- Generator: Adobe Illustrator 16.0.0, SVG Export Plug-In . SVG Version: 6.00 Build 0)  -->
<!DOCTYPE svg PUBLIC "-//W3C//DTD SVG 1.1//EN" "http://www.w3.org/Graphics/SVG/1.1/DTD/svg11.dtd">
<svg version="1.1" id="Layer_1" xmlns="http://www.w3.org/2000/svg" xmlns:xlink="http://www.w3.org/1999/xlink" x="0px" y="0px"
	 width="753.26px" height="162.707px" viewBox="103.37 398.646 753.26 162.707"
	 enable-background="new 103.37 398.646 753.26 162.707" xml:space="preserve">
<g>
	<path fill="#231F20" d="M235.763,457.724c-3.209-8.317-3.486-17.541-0.794-26.022l8.253-8.255l-1.943-1.942l-8.092,8.091
		c-3.974,1.298-8.096,1.954-12.259,1.948c-5.48-0.007-10.817-1.146-15.868-3.384c-8.151-3.615-14.869-9.942-18.962-17.838v-11.675
		h-2.745v11.446c-4.406,8.667-11.822,15.368-20.905,18.87c-4.565,1.759-9.335,2.65-14.183,2.643
		c-4.021-0.004-8.004-0.633-11.85-1.857l-8.245-8.245l-1.946,1.942l8.097,8.096c3.019,9.241,2.51,19.225-1.438,28.124
		c-3.614,8.149-9.938,14.865-17.836,18.96H103.37v2.749h11.444c8.671,4.404,15.369,11.816,18.871,20.903
		c3.208,8.322,3.485,17.546,0.792,26.023l-8.254,8.257l1.946,1.942l8.093-8.098c3.976-1.295,8.1-1.951,12.261-1.945
		c5.479,0.006,10.814,1.145,15.863,3.383c8.152,3.613,14.866,9.939,18.963,17.84v11.674h2.748v-11.444
		c4.402-8.668,11.82-15.367,20.902-18.871c4.567-1.759,9.34-2.65,14.187-2.641c4.018,0.002,8,0.629,11.843,1.85l8.247,8.254
		l1.944-1.942l-8.09-8.093c-3.019-9.244-2.515-19.227,1.435-28.129c3.614-8.149,9.938-14.865,17.836-18.963h11.677v-2.749h-11.445
		C245.964,474.22,239.265,466.807,235.763,457.724z M186.098,415.688c4.401,6.533,10.593,11.767,17.848,14.985
		c5.402,2.394,11.117,3.609,16.977,3.619c2.831,0.003,5.645-0.281,8.409-0.845l-5.631,5.634c-3.161,1.022-6.441,1.544-9.752,1.541
		c-4.387-0.008-8.66-0.917-12.701-2.709c-6.508-2.886-11.871-7.936-15.149-14.23L186.098,415.688L186.098,415.688z M221.883,515.217
		l-16.838-16.84c6.228-3.969,11.717-9.75,15.941-17.004h14.792c-4.983,3.543-8.979,8.396-11.477,14.035
		C221.52,501.678,220.705,508.559,221.883,515.217z M219.849,517.07c-1.876-0.322-3.777-0.486-5.688-0.49
		c-4.22-0.008-8.375,0.768-12.347,2.301c-6.396,2.465-11.837,6.754-15.716,12.297v-26.707c5.749-0.225,11.34-1.836,16.503-4.647
		L219.849,517.07z M220.988,478.625c-4.225-7.25-9.715-13.033-15.943-17.003l16.754-16.751c-1.023,6.032-0.414,12.284,1.806,18.041
		c2.47,6.396,6.76,11.836,12.298,15.714L220.988,478.625L220.988,478.625z M186.098,428.944c3.541,4.985,8.394,8.977,14.034,11.479
		c4.394,1.947,9.041,2.939,13.811,2.946c2.016,0,4.019-0.177,5.995-0.526l-17.335,17.334c-5.165-2.811-10.756-4.427-16.505-4.647
		V428.944L186.098,428.944z M145.844,497.09c-2.468-6.396-6.754-11.84-12.301-15.717h14.917c4.227,7.252,9.716,13.035,15.943,17.004
		l-16.752,16.754C148.672,509.1,148.062,502.847,145.844,497.09z M133.67,478.625c4.986-3.543,8.979-8.395,11.477-14.031
		c2.782-6.269,3.596-13.148,2.419-19.811l16.837,16.842c-6.228,3.967-11.718,9.75-15.942,17H133.67z M149.597,442.928
		c1.878,0.324,3.783,0.488,5.695,0.493c4.217,0.004,8.371-0.77,12.344-2.3c6.396-2.469,11.84-6.757,15.717-12.297v26.706h-0.003
		c-5.748,0.223-11.342,1.837-16.504,4.65L149.597,442.928z M148.262,434.354c5.188,0.011,10.29-0.944,15.174-2.824
		c8.195-3.165,15.119-8.753,19.914-15.987v7.959c-3.525,6.912-9.45,12.256-16.705,15.056c-3.652,1.409-7.472,2.12-11.352,2.115
		c-3.193-0.004-6.364-0.503-9.423-1.47l-5.635-5.635C142.876,434.087,145.561,434.352,148.262,434.354z M135.396,460.778
		c3.559-8.027,4.504-16.876,2.779-25.384l5.631,5.632c2.393,7.382,1.98,15.347-1.17,22.454c-2.885,6.503-7.931,11.866-14.229,15.145
		h-7.994C126.947,474.224,132.178,468.035,135.396,460.778z M136.25,501.288c-3.16-8.192-8.748-15.12-15.985-19.915h7.958
		c6.917,3.527,12.259,9.452,15.058,16.705c2.561,6.643,2.781,14.006,0.645,20.775l-5.65,5.651
		C139.783,516.775,139.106,508.697,136.25,501.288z M183.35,544.312c-4.402-6.536-10.592-11.769-17.847-14.984
		c-5.402-2.396-11.113-3.611-16.977-3.621c-2.831-0.002-5.645,0.28-8.408,0.845l5.631-5.632c3.16-1.023,6.44-1.545,9.753-1.541
		c4.386,0.008,8.658,0.917,12.701,2.709c6.508,2.885,11.869,7.932,15.146,14.23L183.35,544.312L183.35,544.312z M183.35,531.055
		c-3.542-4.983-8.396-8.977-14.034-11.479c-4.393-1.946-9.04-2.939-13.81-2.945c-2.013,0-4.018,0.178-5.995,0.525l17.337-17.336
		c5.163,2.813,10.754,4.426,16.502,4.647V531.055L183.35,531.055z M184.725,501.747c-13.329,0-25.946-8.114-33.888-21.749
		c7.941-13.635,20.559-21.747,33.888-21.747c13.328,0,25.945,8.112,33.887,21.747C210.67,493.633,198.053,501.747,184.725,501.747z
		 M221.19,525.645c-5.188-0.008-10.293,0.947-15.178,2.827c-8.196,3.161-15.119,8.753-19.915,15.987V536.5
		c3.53-6.914,9.451-12.257,16.703-15.057c3.655-1.409,7.475-2.12,11.355-2.114c3.192,0.003,6.36,0.499,9.417,1.466l5.637,5.637
		C226.57,525.911,223.888,525.648,221.19,525.645z M234.053,499.222c-3.562,8.029-4.505,16.88-2.776,25.387l-5.632-5.632
		c-2.395-7.383-1.983-15.349,1.167-22.452c2.887-6.511,7.934-11.871,14.234-15.15h7.991
		C242.501,485.775,237.271,491.965,234.053,499.222z M241.225,478.625c-6.915-3.529-12.258-9.449-15.057-16.705
		c-2.562-6.639-2.783-14-0.646-20.773l5.652-5.649c-1.511,7.729-0.833,15.81,2.024,23.215c3.16,8.195,8.75,15.118,15.985,19.913
		H241.225L241.225,478.625z"/>
	<path fill="#231F20" d="M184.722,461.976c-10.066,0-18.257,8.191-18.257,18.26c0,3.177,0.819,6.171,2.256,8.778
		c0.034,0.066,0.069,0.134,0.111,0.193c3.141,5.539,9.084,9.284,15.89,9.284c6.808,0,12.751-3.745,15.892-9.28
		c0.048-0.069,0.087-0.143,0.124-0.219c1.43-2.603,2.245-5.586,2.245-8.757C202.982,470.166,194.791,461.976,184.722,461.976z
		 M180.266,465.38c-1.265,1.526-2.318,3.193-3.143,4.965h-4.337C174.714,468.023,177.304,466.272,180.266,465.38z M170.977,473.069
		h5.084c-0.574,1.807-0.926,3.692-1.034,5.618h-5.735C169.492,476.676,170.079,474.78,170.977,473.069z M170.793,487.044
		c-0.842-1.714-1.372-3.608-1.528-5.608h5.775c0.122,1.931,0.485,3.811,1.071,5.608H170.793z M172.523,489.792h4.688
		c0.941,1.975,2.168,3.814,3.663,5.468C177.518,494.398,174.6,492.438,172.523,489.792z M183.359,493.898
		c-1.196-1.249-2.222-2.627-3.055-4.106h3.055V493.898z M183.359,487.044h-4.331c-0.672-1.784-1.093-3.669-1.232-5.608h5.563
		V487.044z M183.359,478.688h-5.576c0.124-1.938,0.532-3.826,1.188-5.618h4.388V478.688z M183.359,470.345h-3.157
		c0.852-1.553,1.908-3.004,3.157-4.306V470.345z M196.662,470.345h-4.339c-0.823-1.771-1.876-3.438-3.141-4.962
		C192.142,466.274,194.734,468.023,196.662,470.345z M186.089,466.042c1.247,1.304,2.306,2.75,3.154,4.303h-3.154V466.042z
		 M186.089,473.069h4.387c0.657,1.792,1.062,3.681,1.188,5.618h-5.574L186.089,473.069L186.089,473.069z M186.089,481.436h5.562
		c-0.14,1.939-0.556,3.824-1.23,5.608h-4.331L186.089,481.436L186.089,481.436z M186.089,489.792h3.055
		c-0.833,1.479-1.858,2.856-3.055,4.104V489.792z M188.573,495.26c1.492-1.652,2.721-3.493,3.661-5.468h4.689
		C194.848,492.438,191.928,494.396,188.573,495.26z M198.653,487.044h-5.317c0.585-1.8,0.948-3.679,1.071-5.608h5.773
		C200.029,483.436,199.497,485.33,198.653,487.044z M200.155,478.688h-5.734c-0.111-1.926-0.459-3.812-1.032-5.618h5.082
		C199.367,474.78,199.954,476.676,200.155,478.688z"/>
	<path fill="#231F20" d="M333.383,465.695c-1.172,0-2.356,0.166-3.553,0.497c-1.197,0.332-2.331,0.791-3.4,1.375
		c-1.07,0.587-2.039,1.288-2.904,2.102c-0.867,0.816-1.579,1.708-2.14,2.676h-0.153c0-0.967-0.013-1.923-0.038-2.866
		c-0.026-0.942-0.09-1.896-0.191-2.865h-5.197c0.103,1.325,0.191,2.725,0.269,4.203c0.076,1.478,0.114,2.7,0.114,3.668v27.894h5.044
		v-18.342c0-3.26,0.51-5.809,1.528-7.643c1.02-1.834,2.178-3.209,3.478-4.127c1.299-0.917,2.533-1.477,3.706-1.681
		c1.173-0.203,1.885-0.305,2.14-0.305c3.719,0,6.267,1.057,7.644,3.171c1.375,2.114,2.062,5.159,2.062,9.133v19.793h5.045v-22.697
		c0-4.482-1.097-7.936-3.287-10.355C341.356,466.907,337.97,465.695,333.383,465.695z"/>
	<path fill="#231F20" d="M394.293,494.354v-15.971c0-2.189-0.355-4.077-1.069-5.656c-0.714-1.577-1.655-2.891-2.827-3.936
		c-1.172-1.043-2.561-1.821-4.165-2.331c-1.604-0.508-3.274-0.764-5.006-0.764c-6.726,0-11.77,1.732-15.132,5.196l3.057,3.593
		c3.107-2.802,6.75-4.203,10.928-4.203c6.115,0,9.171,3.083,9.171,9.247v0.917h-2.521c-2.142,0-4.498,0.102-7.069,0.307
		c-2.573,0.203-4.994,0.713-7.261,1.527c-2.268,0.815-4.152,2.053-5.654,3.707c-1.504,1.655-2.256,3.937-2.256,6.84
		c0,1.732,0.344,3.248,1.032,4.547c0.688,1.3,1.604,2.396,2.751,3.286c1.146,0.892,2.457,1.556,3.936,1.987
		c1.478,0.432,3.007,0.647,4.586,0.647c2.904,0,5.362-0.521,7.375-1.563c2.012-1.046,3.757-2.765,5.235-5.159h0.151
		c0,0.968,0.04,1.962,0.115,2.979c0.076,1.021,0.192,1.963,0.344,2.828h4.892c-0.153-0.967-0.294-2.203-0.421-3.706
		C394.356,497.171,394.293,495.73,394.293,494.354z M389.249,487.171c0,1.579-0.216,3.069-0.648,4.471
		c-0.434,1.401-1.107,2.626-2.025,3.669c-0.917,1.045-2.051,1.871-3.401,2.484c-1.35,0.61-2.941,0.916-4.776,0.916
		c-1.021,0-2.025-0.114-3.02-0.344c-0.992-0.229-1.897-0.612-2.712-1.146c-0.815-0.535-1.466-1.223-1.948-2.062
		c-0.486-0.842-0.727-1.849-0.727-3.021c0-1.781,0.624-3.185,1.872-4.203c1.249-1.02,2.752-1.77,4.509-2.256
		c1.758-0.481,3.593-0.788,5.503-0.916c1.91-0.127,3.502-0.19,4.776-0.19h2.598L389.249,487.171L389.249,487.171z"/>
	<path fill="#231F20" d="M429.678,498.33c-0.916,0.254-1.809,0.381-2.675,0.381c-0.764,0-1.465-0.089-2.102-0.268
		c-0.639-0.179-1.186-0.497-1.644-0.955c-0.459-0.459-0.815-1.108-1.068-1.949c-0.258-0.84-0.385-1.922-0.385-3.247v-21.094h10.317
		v-4.584h-10.317v-10.089h-5.043v10.089h-7.565v4.584h7.565v22.545c0,1.987,0.278,3.593,0.84,4.812
		c0.562,1.226,1.272,2.192,2.141,2.906c0.866,0.713,1.822,1.196,2.866,1.451c1.045,0.255,2.051,0.381,3.02,0.381
		c2.647,0,4.916-0.432,6.802-1.297l-0.229-4.662C431.436,497.744,430.596,498.074,429.678,498.33z"/>
	<path fill="#231F20" d="M477.289,494.508v-27.895h-5.045v18.342c0,3.26-0.51,5.809-1.527,7.643
		c-1.021,1.834-2.179,3.209-3.479,4.125c-1.299,0.918-2.535,1.48-3.706,1.684c-1.173,0.204-1.886,0.306-2.141,0.306
		c-1.885,0-3.45-0.268-4.699-0.803s-2.242-1.324-2.98-2.369c-0.738-1.043-1.261-2.33-1.566-3.859
		c-0.305-1.528-0.459-3.284-0.459-5.272v-19.793h-5.043v22.697c0,4.483,1.096,7.936,3.285,10.354
		c2.19,2.419,5.58,3.629,10.165,3.629c1.171,0,2.356-0.164,3.555-0.494c1.196-0.333,2.33-0.791,3.4-1.377
		c1.069-0.584,2.037-1.285,2.904-2.102c0.865-0.814,1.577-1.707,2.14-2.676h0.151c0,0.969,0.013,1.925,0.04,2.866
		c0.022,0.943,0.087,1.898,0.188,2.865h5.197c-0.104-1.324-0.191-2.725-0.268-4.203
		C477.327,496.699,477.289,495.477,477.289,494.508z"/>
	<path fill="#231F20" d="M509.349,466.346c-1.25,0.435-2.344,1.006-3.286,1.72c-0.942,0.715-1.745,1.518-2.406,2.408
		c-0.663,0.892-1.173,1.821-1.529,2.788h-0.151v-6.647h-4.968c0.049,2.598,0.114,4.712,0.191,6.343
		c0.076,1.631,0.113,3.236,0.113,4.813v24.609h5.044v-20.176c0-1.223,0.217-2.496,0.649-3.82c0.434-1.325,1.108-2.561,2.024-3.707
		c0.918-1.146,2.062-2.089,3.438-2.828c1.377-0.736,3.031-1.107,4.968-1.107c1.274,0,2.243,0.127,2.904,0.381l0.994-4.967
		c-1.07-0.307-2.318-0.459-3.745-0.459C512.011,465.695,510.597,465.914,509.349,466.346z"/>
	<path fill="#231F20" d="M557.76,494.354v-15.971c0-2.189-0.354-4.077-1.068-5.656c-0.715-1.577-1.655-2.891-2.826-3.936
		c-1.173-1.043-2.562-1.821-4.166-2.331c-1.604-0.508-3.274-0.764-5.006-0.764c-6.727,0-11.771,1.732-15.133,5.196l3.059,3.593
		c3.105-2.802,6.749-4.203,10.928-4.203c6.114,0,9.171,3.083,9.171,9.247v0.917h-2.521c-2.142,0-4.497,0.102-7.069,0.307
		c-2.573,0.203-4.994,0.713-7.261,1.527c-2.269,0.815-4.152,2.053-5.654,3.707c-1.504,1.655-2.255,3.937-2.255,6.84
		c0,1.732,0.343,3.248,1.031,4.547c0.688,1.3,1.604,2.396,2.751,3.286c1.146,0.892,2.458,1.556,3.936,1.987
		c1.479,0.431,3.007,0.647,4.586,0.647c2.904,0,5.362-0.521,7.375-1.563c2.013-1.046,3.758-2.765,5.235-5.159h0.152
		c0,0.968,0.038,1.962,0.114,2.979c0.076,1.021,0.191,1.963,0.344,2.828h4.892c-0.153-0.967-0.294-2.203-0.421-3.706
		C557.823,497.171,557.76,495.73,557.76,494.354z M552.717,487.171c0,1.579-0.217,3.069-0.648,4.471
		c-0.435,1.401-1.107,2.626-2.025,3.669c-0.916,1.045-2.051,1.871-3.401,2.484c-1.35,0.61-2.94,0.916-4.775,0.916
		c-1.021,0-2.025-0.114-3.02-0.344c-0.993-0.229-1.896-0.612-2.713-1.146c-0.814-0.535-1.466-1.223-1.948-2.062
		c-0.484-0.842-0.727-1.849-0.727-3.021c0-1.781,0.624-3.185,1.872-4.203c1.249-1.02,2.752-1.77,4.509-2.256
		c1.759-0.481,3.593-0.788,5.503-0.916c1.91-0.127,3.502-0.19,4.776-0.19h2.599L552.717,487.171L552.717,487.171z"/>
	<rect x="578.242" y="444.603" fill="#231F20" width="5.045" height="57.776"/>
	<path fill="#231F20" d="M656.994,474.5c-1.291-1.426-2.888-2.569-4.789-3.431c-1.9-0.859-4.052-1.29-6.451-1.29
		c-2.265,0-4.37,0.418-6.315,1.256c-1.947,0.839-3.646,2.003-5.094,3.498c-1.45,1.494-2.582,3.26-3.396,5.297
		c-0.815,2.038-1.224,4.257-1.224,6.655c0,2.401,0.419,4.618,1.257,6.655s1.979,3.804,3.431,5.299
		c1.448,1.492,3.18,2.66,5.195,3.496c2.015,0.839,4.198,1.258,6.555,1.258c2.625,0,5.081-0.521,7.367-1.562
		c2.286-1.04,4.381-2.761,6.283-5.161l-3.464-2.854c-0.906,1.451-2.23,2.729-3.975,3.838c-1.742,1.111-3.814,1.664-6.213,1.664
		c-1.587,0-3.058-0.295-4.416-0.883c-1.357-0.589-2.558-1.394-3.6-2.411c-1.042-1.019-1.88-2.229-2.514-3.634
		c-0.635-1.402-1.018-2.896-1.153-4.481h26.486v-2.038c0-2.174-0.34-4.223-1.019-6.146
		C659.269,477.601,658.285,475.926,656.994,474.5z M634.616,484.041c0-1.312,0.306-2.58,0.916-3.802
		c0.61-1.224,1.427-2.311,2.444-3.261c1.021-0.95,2.207-1.709,3.565-2.275c1.358-0.564,2.761-0.85,4.211-0.85
		c3.26,0,5.795,0.94,7.606,2.82c1.811,1.879,2.717,4.336,2.717,7.367H634.616z"/>
	<path fill="#231F20" d="M691.188,469.78c-1.041,0-2.095,0.146-3.156,0.44c-1.064,0.295-2.072,0.702-3.022,1.224
		c-0.951,0.521-1.812,1.143-2.581,1.866c-0.771,0.726-1.403,1.518-1.899,2.378h-0.138c0-0.86-0.012-1.71-0.033-2.547
		c-0.023-0.838-0.08-1.687-0.17-2.547h-4.617c0.09,1.178,0.169,2.423,0.235,3.735c0.069,1.312,0.104,2.4,0.104,3.26v24.789h4.481
		V486.08c0-2.897,0.451-5.162,1.358-6.792c0.905-1.63,1.936-2.853,3.09-3.667c1.154-0.815,2.252-1.313,3.294-1.495
		c1.041-0.18,1.675-0.272,1.901-0.272c3.306,0,5.569,0.94,6.792,2.82c1.222,1.879,1.833,4.584,1.833,8.115v17.59h4.482v-20.17
		c0-3.984-0.974-7.053-2.921-9.204C698.274,470.856,695.263,469.78,691.188,469.78z"/>
	<path fill="#231F20" d="M746.099,474.5c-1.291-1.426-2.888-2.569-4.789-3.431c-1.899-0.859-4.052-1.29-6.451-1.29
		c-2.266,0-4.369,0.418-6.315,1.256c-1.947,0.839-3.645,2.003-5.094,3.498c-1.449,1.494-2.581,3.26-3.396,5.297
		c-0.813,2.038-1.222,4.257-1.222,6.655c0,2.401,0.418,4.618,1.256,6.655c0.837,2.037,1.98,3.804,3.431,5.299
		c1.448,1.492,3.181,2.66,5.195,3.496c2.016,0.839,4.199,1.258,6.555,1.258c2.625,0,5.081-0.521,7.367-1.562
		c2.286-1.04,4.381-2.761,6.282-5.161l-3.463-2.854c-0.906,1.451-2.23,2.729-3.974,3.838c-1.742,1.111-3.814,1.664-6.214,1.664
		c-1.587,0-3.058-0.295-4.416-0.883c-1.356-0.589-2.559-1.394-3.6-2.411c-1.042-1.02-1.879-2.229-2.513-3.634
		c-0.636-1.402-1.019-2.896-1.154-4.481h26.486v-2.038c0-2.174-0.339-4.223-1.019-6.146
		C748.373,477.601,747.389,475.926,746.099,474.5z M723.721,484.041c0-1.312,0.306-2.58,0.916-3.802
		c0.611-1.224,1.427-2.311,2.445-3.261s2.207-1.709,3.565-2.275c1.357-0.564,2.761-0.85,4.21-0.85c3.261,0,5.796,0.94,7.606,2.82
		c1.812,1.879,2.717,4.336,2.717,7.367H723.721z"/>
	<path fill="#231F20" d="M800.465,469.78c-2.13,0-4.178,0.588-6.146,1.765c-1.97,1.178-3.406,2.785-4.312,4.823
		c-0.543-1.358-1.212-2.467-2.004-3.329c-0.793-0.859-1.642-1.527-2.547-2.003c-0.906-0.477-1.846-0.802-2.818-0.984
		c-0.974-0.182-1.892-0.271-2.75-0.271c-1.901,0-3.814,0.475-5.738,1.426c-1.927,0.95-3.432,2.354-4.517,4.21h-0.137v-4.821h-4.821
		c0.09,1.177,0.169,2.354,0.236,3.531c0.068,1.178,0.103,2.355,0.103,3.532v24.721h4.482V486.08c0-2.897,0.418-5.162,1.257-6.792
		c0.836-1.63,1.776-2.853,2.818-3.667c1.04-0.815,2.048-1.313,3.021-1.495c0.974-0.18,1.597-0.272,1.867-0.272
		c3.079,0,5.184,0.862,6.316,2.582c1.131,1.722,1.697,4.188,1.697,7.403v18.54h4.481v-16.91c0-1.494,0.158-2.932,0.477-4.312
		c0.314-1.381,0.824-2.616,1.527-3.703c0.702-1.085,1.618-1.957,2.75-2.614c1.132-0.656,2.535-0.984,4.212-0.984
		c3.077,0,5.183,0.861,6.314,2.581c1.132,1.722,1.698,4.188,1.698,7.403v18.54h4.482v-20.17c0-3.984-0.975-7.053-2.921-9.204
		C807.55,470.856,804.539,469.78,800.465,469.78z"/>
	<path fill="#231F20" d="M851.196,470.595l-9.712,26.283l-9.984-26.283h-5.636l13.039,32.191l-2.31,6.113
		c-0.68,1.811-1.473,3.214-2.378,4.21c-0.906,0.996-2.149,1.494-3.733,1.494c-1.314,0-2.445-0.25-3.396-0.746l-0.475,4.346
		c0.679,0.227,1.367,0.363,2.069,0.408c0.701,0.045,1.394,0.066,2.072,0.066c2.761,0,4.878-0.726,6.352-2.173
		c1.471-1.448,2.683-3.396,3.633-5.842l15.893-40.069L851.196,470.595L851.196,470.595z"/>
</g>
</svg>
