<?xml version="1.0" encoding="utf-8"?>
<!-- Generator: Adobe Illustrator 16.0.0, SVG Export Plug-In . SVG Version: 6.00 Build 0)  -->
<!DOCTYPE svg PUBLIC "-//W3C//DTD SVG 1.1//EN" "http://www.w3.org/Graphics/SVG/1.1/DTD/svg11.dtd">
<svg version="1.1" id="Layer_1" xmlns="http://www.w3.org/2000/svg" xmlns:xlink="http://www.w3.org/1999/xlink" x="0px" y="0px"
	 width="960px" height="960px" viewBox="0 0 960 960" enable-background="new 0 0 960 960" xml:space="preserve">
<g>
	<path fill="#231F20" d="M880,473.244h-56.276c-42.622-21.65-75.555-58.111-92.785-102.777c-15.776-40.898-17.136-86.244-3.9-127.95
		l40.58-40.58l-9.556-9.555l-39.784,39.785c-19.536,6.374-39.81,9.607-60.282,9.581c-26.933-0.035-53.18-5.634-78.009-16.642
		c-40.078-17.77-73.104-48.872-93.231-87.711V80h-13.512v56.284c-21.646,42.616-58.107,75.549-102.778,92.782
		c-22.438,8.652-45.9,13.023-69.732,12.992c-19.765-0.025-39.347-3.115-58.255-9.13l-40.546-40.546l-9.556,9.555l39.798,39.798
		c14.833,45.452,12.338,94.521-7.067,138.283c-17.765,40.064-48.861,73.088-87.7,93.226H80v13.512h56.273
		c42.633,21.646,75.566,58.107,92.782,102.777c15.777,40.909,17.138,86.259,3.902,127.955l-40.581,40.58l9.556,9.555l39.797-39.798
		c19.541-6.371,39.813-9.603,60.28-9.576c26.934,0.036,53.178,5.636,78.002,16.643c40.074,17.766,73.1,48.865,93.231,87.706V880
		h13.512v-56.277c21.643-42.621,58.105-75.555,102.774-92.788c22.45-8.654,45.916-13.027,69.749-12.996
		c19.754,0.025,39.325,3.115,58.221,9.122l40.562,40.562l9.556-9.555l-39.782-39.782c-14.847-45.451-12.355-94.526,7.056-138.296
		c17.767-40.069,48.866-73.097,87.706-93.234H880V473.244z M718.332,375.33c15.54,40.291,43.024,74.338,78.594,97.914h-39.135
		c-33.989-17.35-60.262-46.468-74.02-82.129c-12.594-32.656-13.689-68.843-3.183-102.148l27.788-27.787
		C700.948,299.202,704.283,338.914,718.332,375.33z M288.831,564.026c-12.122-31.452-33.213-58.212-60.468-77.271h73.346
		c20.768,35.657,47.759,64.09,78.378,83.602l-82.375,82.376C302.732,623.079,299.744,592.331,288.831,564.026z M480,586.93
		c-65.529,0-127.569-39.896-166.623-106.935C352.432,412.961,414.471,373.068,480,373.068c65.535,0,127.574,39.893,166.619,106.927
		C607.574,547.034,545.535,586.93,480,586.93z M486.756,359.687V228.972c17.419,24.516,41.273,44.142,69.001,56.437
		c21.609,9.58,44.458,14.453,67.91,14.483c9.904,0.013,19.752-0.863,29.467-2.582L567.9,382.544
		C542.524,368.706,515.024,360.776,486.756,359.687z M473.244,359.687c-28.269,1.09-55.767,9.021-81.146,22.86l-84.815-84.816
		c9.24,1.579,18.596,2.399,28.001,2.411c20.75,0.026,41.17-3.776,60.694-11.302c31.454-12.136,58.21-33.229,77.267-60.475V359.687z
		 M380.082,389.642c-30.62,19.511-57.61,47.945-78.378,83.602h-72.731c24.519-17.423,44.147-41.277,56.441-69
		c13.661-30.814,17.666-64.646,11.877-97.394L380.082,389.642z M392.104,577.452c25.377,13.838,52.875,21.77,81.14,22.858v130.716
		c-17.421-24.517-41.277-44.146-69.006-56.44c-21.602-9.577-44.445-14.447-67.895-14.479c-9.906-0.012-19.756,0.863-29.477,2.582
		L392.104,577.452z M486.756,600.311c28.266-1.089,55.763-9.019,81.14-22.854l84.806,84.807c-9.23-1.577-18.575-2.396-27.972-2.408
		c-20.751-0.026-41.178,3.778-60.71,11.311c-31.445,12.126-58.201,33.215-77.264,60.467V600.311z M579.911,570.361
		c30.62-19.511,57.612-47.947,78.377-83.605h72.738c-24.514,17.421-44.143,41.275-56.44,69.005
		c-13.666,30.815-17.672,64.65-11.876,97.399L579.911,570.361z M658.294,473.244c-20.765-35.659-47.756-64.094-78.377-83.605
		l82.363-82.364c-5.02,29.654-2.031,60.401,8.885,88.702c12.132,31.446,33.225,58.205,60.472,77.267H658.294z M574.51,237.459
		c26.562,11.775,54.643,17.764,83.469,17.801c13.918,0.017,27.748-1.381,41.347-4.141l-27.684,27.684
		c-15.547,5.036-31.673,7.596-47.958,7.576c-21.558-0.027-42.571-4.51-62.449-13.323c-31.994-14.185-58.354-38.997-74.479-69.972
		v-39.298C508.389,195.917,538.826,221.636,574.51,237.459z M300.717,255.57c25.505,0.034,50.609-4.642,74.611-13.896
		c40.292-15.545,74.341-43.03,97.916-78.593v39.122c-17.339,33.991-46.458,60.265-82.129,74.027
		c-17.96,6.923-36.738,10.422-55.815,10.398c-15.718-0.02-31.292-2.465-46.337-7.217l-27.707-27.707
		C274.246,254.258,287.443,255.554,300.717,255.57z M237.461,385.494c17.503-39.471,22.146-82.983,13.665-124.809l27.688,27.688
		c11.76,36.299,9.734,75.457-5.753,110.392c-14.185,31.985-38.995,58.346-69.97,74.478h-39.299
		C195.923,451.605,221.643,421.169,237.461,385.494z M241.664,584.674c-15.529-40.292-43.009-74.342-78.587-97.918h39.119
		c34.006,17.341,60.278,46.46,74.026,82.13c12.593,32.659,13.687,68.851,3.182,102.154l-27.783,27.784
		C259.047,660.807,255.711,621.094,241.664,584.674z M385.489,722.538c-26.554-11.774-54.635-17.763-83.461-17.802
		c-13.917-0.017-27.749,1.382-41.349,4.141l27.679-27.68c15.554-5.04,31.682-7.599,47.966-7.577
		c21.558,0.028,42.564,4.511,62.437,13.317c31.994,14.188,58.356,38.998,74.482,69.975v39.294
		C451.609,764.075,421.173,738.356,385.489,722.538z M659.297,704.426c-25.507-0.033-50.614,4.644-74.63,13.902
		c-40.287,15.54-74.337,43.026-97.911,78.594v-39.13c17.349-33.996,46.467-60.268,82.124-74.021
		c17.971-6.928,36.756-10.43,55.832-10.404c15.709,0.021,31.272,2.464,46.305,7.211l27.709,27.708
		C685.748,705.738,672.56,704.444,659.297,704.426z M722.538,574.512c-17.507,39.479-22.147,82.991-13.658,124.818l-27.686-27.686
		c-11.773-36.302-9.751-75.469,5.743-110.404c14.19-31.997,39.002-58.359,69.975-74.484h39.299
		C764.079,508.395,738.359,538.833,722.538,574.512z"/>
	<path fill="#231F20" d="M569.765,481.152c0-49.497-40.272-89.765-89.774-89.765c-49.494,0-89.759,40.269-89.759,89.765
		c0,15.636,4.026,30.343,11.082,43.157c0.163,0.339,0.342,0.665,0.557,0.968c15.435,27.222,44.658,45.643,78.121,45.643
		c33.463,0,62.688-18.415,78.126-45.629c0.239-0.337,0.444-0.697,0.618-1.075C565.76,511.424,569.765,496.748,569.765,481.152z
		 M555.87,473.548h-28.201c-0.529-9.469-2.253-18.741-5.077-27.632h24.995C551.995,454.334,554.887,463.662,555.87,473.548z
		 M514.113,473.548h-27.402v-27.632h21.568C511.514,454.735,513.506,464.021,514.113,473.548z M486.711,432.534v-21.162
		c6.134,6.406,11.34,13.522,15.519,21.162H486.711z M473.29,432.534H457.77c4.181-7.646,9.383-14.773,15.521-21.182V432.534z
		 M473.29,445.916v27.632h-27.409c0.606-9.524,2.6-18.811,5.837-27.632H473.29z M432.325,473.548h-28.201
		c0.984-9.886,3.876-19.214,8.282-27.632h25C434.58,454.809,432.854,464.082,432.325,473.548z M403.995,487.062h28.393
		c0.603,9.475,2.381,18.723,5.262,27.569h-26.146C407.363,506.194,404.751,496.886,403.995,487.062z M445.934,487.062h27.356v27.569
		h-21.306C448.68,505.861,446.627,496.596,445.934,487.062z M473.29,528.144v20.189c-5.892-6.136-10.923-12.919-15.012-20.189
		H473.29z M486.711,528.144h15.006c-4.087,7.27-9.116,14.05-15.006,20.183V528.144z M486.711,514.631v-27.569h27.348
		c-0.691,9.534-2.744,18.8-6.048,27.569H486.711z M527.604,487.062h28.396c-0.758,9.824-3.37,19.133-7.512,27.569h-26.145
		C525.226,505.784,527.002,496.536,527.604,487.062z M538.691,432.534h-21.319c-4.058-8.712-9.238-16.915-15.448-24.405
		C516.479,412.508,529.217,421.117,538.691,432.534z M458.074,408.125c-6.209,7.492-11.393,15.695-15.451,24.408H421.3
		C430.777,421.113,443.517,412.503,458.074,408.125z M420.008,528.144h23.052c4.635,9.708,10.678,18.758,18.004,26.883
		C444.569,550.798,430.228,541.163,420.008,528.144z M498.934,555.023c7.324-8.123,13.367-17.173,18.002-26.88h23.047
		C529.766,541.159,515.425,550.794,498.934,555.023z"/>
</g>
</svg>
